<svg width="32" height="32" viewBox="0 0 32 32" fill="none" xmlns="http://www.w3.org/2000/svg">
<path d="M30.0175 21.915C27.865 21.915 25.7825 21.565 23.84 20.935C23.2275 20.725 22.545 20.8825 22.0725 21.355L19.325 24.8025C14.3725 22.44 9.735 17.9775 7.2675 12.85L10.68 9.945C11.1525 9.455 11.2925 8.7725 11.1 8.16C10.4525 6.2175 10.12 4.135 10.12 1.9825C10.12 1.0375 9.3325 0.25 8.3875 0.25H2.3325C1.3875 0.25 0.25 0.67 0.25 1.9825C0.25 18.24 13.7775 31.75 30.0175 31.75C31.26 31.75 31.75 30.6475 31.75 29.685V23.6475C31.75 22.7025 30.9625 21.915 30.0175 21.915Z" fill="black"/>
</svg>
